<?xml version="1.0" standalone="no"?>
<!DOCTYPE svg PUBLIC "-//W3C//DTD SVG 20010904//EN"
 "http://www.w3.org/TR/2001/REC-SVG-20010904/DTD/svg10.dtd">
<svg version="1.0" xmlns="http://www.w3.org/2000/svg"
 width="260.000000pt" height="260.000000pt" viewBox="0 0 260.000000 260.000000"
 preserveAspectRatio="xMidYMid meet">
<metadata>
Created by potrace 1.11, written by Peter Selinger 2001-2013
</metadata>
<g transform="translate(0.000000,260.000000) scale(0.100000,-0.100000)"
fill="#000000" stroke="none">
<path d="M646 2220 c-66 -21 -97 -81 -76 -145 18 -53 55 -69 185 -75 l110 -5
3 -689 c2 -545 0 -691 -10 -698 -7 -4 -67 -8 -133 -8 -126 -1 -136 -4 -168
-50 -33 -48 -14 -122 39 -150 40 -22 978 -22 1018 0 32 17 56 58 56 95 0 31
-27 81 -49 92 -9 4 -126 10 -261 13 l-245 5 -3 283 -2 282 127 0 c156 0 346
16 432 36 94 21 184 70 245 131 90 89 125 190 126 358 0 170 -42 279 -143 371
-90 83 -193 123 -372 144 -118 14 -841 23 -879 10z m856 -230 c146 -21 252
-87 282 -177 25 -74 21 -206 -8 -269 -53 -115 -167 -153 -466 -157 l-195 -2
-3 308 -2 307 162 0 c90 0 193 -5 230 -10z"/>
</g>
</svg>
